HIERARCHY
ROOT Hips
{
	OFFSET 0.000000 0.000000 0.000000
	CHANNELS 6 Xposition Yposition Zposition Xrotation Yrotation Zrotation
	JOINT LeftUpLeg_virtual
	{
		OFFSET 0.000000 0.000000 0.000000
		CHANNELS 3 Xrotation Yrotation Zrotation
		JOINT LeftUpLeg
		{
			OFFSET 10.205400 -3.823500 0.155100
			CHANNELS 3 Xrotation Yrotation Zrotation
			JOINT LeftLeg
			{
				OFFSET 0.708757 -12.982077 0.567790
				CHANNELS 3 Xrotation Yrotation Zrotation
				JOINT LeftFoot
				{
					OFFSET -0.708756 -10.717838 -2.184338
					CHANNELS 3 Xrotation Yrotation Zrotation
					JOINT LeftToeBase
					{
						OFFSET 0.108149 -7.191104 7.560241
						CHANNELS 3 Xrotation Yrotation Zrotation
						JOINT LeftToe_End
						{
							OFFSET 0.070230 0.081724 4.490308
							CHANNELS 3 Xrotation Yrotation Zrotation
							End Site
							{
								OFFSET 0 0 0
							}
						}
					}
				}
			}
		}
	}
	JOINT RightUpLeg_virtual
	{
		OFFSET 0.000000 0.000000 0.000000
		CHANNELS 3 Xrotation Yrotation Zrotation
		JOINT RightUpLeg
		{
			OFFSET -10.205400 -3.823500 0.005500
			CHANNELS 3 Xrotation Yrotation Zrotation
			JOINT RightLeg
			{
				OFFSET -0.708756 -12.982134 0.610632
				CHANNELS 3 Xrotation Yrotation Zrotation
				JOINT RightFoot
				{
					OFFSET 0.708754 -10.717769 -1.945823
					CHANNELS 3 Xrotation Yrotation Zrotation
					JOINT RightToeBase
					{
						OFFSET -0.108140 -7.191069 7.372968
						CHANNELS 3 Xrotation Yrotation Zrotation
						JOINT RightToe_End
						{
							OFFSET -0.070227 0.081735 4.479403
							CHANNELS 3 Xrotation Yrotation Zrotation
							End Site
							{
								OFFSET 0 0 0
							}
						}
					}
				}
			}
		}
	}
	JOINT Spine_virtual
	{
		OFFSET 0.000000 0.000000 0.000000
		CHANNELS 3 Xrotation Yrotation Zrotation
		JOINT Spine
		{
			OFFSET 0.000000 6.876099 0.125700
			CHANNELS 3 Xrotation Yrotation Zrotation
			JOINT Spine1
			{
				OFFSET 0.000000 5.730043 0.104720
				CHANNELS 3 Xrotation Yrotation Zrotation
				JOINT Spine1_split
				{
					OFFSET 0.000000 5.730043 0.104720
					CHANNELS 3 Xrotation Yrotation Zrotation
					JOINT Spine2
					{
						OFFSET 0.000000 5.730043 0.104720
						CHANNELS 3 Xrotation Yrotation Zrotation
						JOINT Neck_virtual
						{
							OFFSET 0.000000 0.000000 0.000000
							CHANNELS 3 Xrotation Yrotation Zrotation
							JOINT Neck
							{
								OFFSET 0.000000 10.314075 0.188496
								CHANNELS 3 Xrotation Yrotation Zrotation
								JOINT Head
								{
									OFFSET 0.000000 7.643700 -2.377400
									CHANNELS 3 Xrotation Yrotation Zrotation
									JOINT HeadTop_End
									{
										OFFSET 0.000000 43.788605 -13.619600
										CHANNELS 3 Xrotation Yrotation Zrotation
										End Site
										{
											OFFSET 0 0 0
										}
									}
								}
							}
						}
						JOINT LeftShoulder_virtual
						{
							OFFSET 0.000000 0.000000 0.000000
							CHANNELS 3 Xrotation Yrotation Zrotation
							JOINT LeftShoulder
							{
								OFFSET 2.196100 4.412489 0.087492
								CHANNELS 3 Xrotation Yrotation Zrotation
								JOINT LeftShoulder_split
								{
									OFFSET 2.196100 4.412489 0.087492
									CHANNELS 3 Xrotation Yrotation Zrotation
									JOINT LeftArm
									{
										OFFSET 8.771219 -2.981674 -0.026999
										CHANNELS 3 Xrotation Yrotation Zrotation
										JOINT LeftForeArm
										{
											OFFSET 8.512804 0.000000 -0.000000
											CHANNELS 3 Xrotation Yrotation Zrotation
											JOINT LeftHand
											{
												OFFSET 18.484802 0.000000 -0.000000
												CHANNELS 3 Xrotation Yrotation Zrotation
												End Site
												{
													OFFSET 0 0 0
												}
											}
										}
									}
								}
							}
						}
						JOINT RightShoulder_virtual
						{
							OFFSET 0.000000 0.000000 0.000000
							CHANNELS 3 Xrotation Yrotation Zrotation
							JOINT RightShoulder
							{
								OFFSET -2.196100 4.412496 0.070690
								CHANNELS 3 Xrotation Yrotation Zrotation
								JOINT RightShoulder_split
								{
									OFFSET -2.196100 4.412496 0.070690
									CHANNELS 3 Xrotation Yrotation Zrotation
									JOINT RightArm
									{
										OFFSET -8.771282 -2.981682 -0.094208
										CHANNELS 3 Xrotation Yrotation Zrotation
										JOINT RightForeArm
										{
											OFFSET -8.494598 0.000000 0.000000
											CHANNELS 3 Xrotation Yrotation Zrotation
											JOINT RightHand
											{
												OFFSET -18.483803 0.000000 0.000001
												CHANNELS 3 Xrotation Yrotation Zrotation
												End Site
												{
													OFFSET 0 0 0
												}
											}
										}
									}
								}
							}
						}
					}
				}
			}
		}
	}
}
MOTION
Frames: 10
Frame Time: 0.03333333
-0.498228 31.767807 -1.762718 0.000000 0.000000 0.000000 -23.283439 -10.081180 -0.966323 15.543805 23.528175 1.761205 40.185999 11.607430 -11.532971 -37.181108 26.041973 12.951287 -2.627899 -0.577268 -1.921785 0.000000 0.000000 0.000000 -21.364388 -10.722327 -1.270355 29.983629 -11.162989 0.310320 25.643353 -7.961108 -2.899507 -30.869375 -26.388697 1.120428 -9.197341 -1.215422 0.466739 0.000000 0.000000 0.000000 -21.074591 -8.967005 -0.928781 9.532638 -3.863235 -1.385545 3.301578 -1.043737 0.024326 0.606012 1.736773 -0.064033 0.000000 0.000000 0.000000 3.486727 -2.140296 0.133688 2.188617 2.326154 -4.849549 -4.465626 -1.272401 3.748301 0.000000 0.000000 0.000000 4.030633 -2.520958 0.271269 0.974128 -15.519568 -11.574798 0.743036 -0.677063 -0.514641 -20.617454 0.294844 -38.383819 3.019338 -67.067185 2.674048 0.000000 0.000000 0.000000 3.383986 -2.176900 0.232614 -0.404919 12.749989 16.705794 1.723536 3.324309 -1.610976 -10.444365 -6.352636 62.374483 -0.616911 42.252582 1.700775 0.000000 0.000000 0.000000 
-0.541901 31.696455 -1.799017 0.000000 0.000000 0.000000 -23.431066 -10.719092 -1.233047 14.539478 23.062853 3.242741 41.845096 11.113862 -11.615221 -36.267850 25.529842 12.428773 -2.488265 -0.351257 -2.525969 0.000000 0.000000 0.000000 -21.371232 -10.490937 -1.321142 30.044534 -11.471952 0.718646 24.928281 -8.252668 -2.971897 -31.328838 -26.303607 1.000484 -9.301316 -1.072238 0.217746 0.000000 0.000000 0.000000 -21.383282 -9.394243 -1.290343 9.753138 -4.071373 -1.435095 3.238428 -1.108479 0.029773 0.617483 1.314541 0.017189 0.000000 0.000000 0.000000 3.587290 -2.147344 0.139243 2.181432 2.248708 -4.666476 -4.553538 -1.386014 3.900219 0.000000 0.000000 0.000000 4.012738 -2.531956 0.298509 0.957591 -15.551215 -11.577121 0.685781 -0.896280 -0.359802 -20.703545 0.137579 -38.578162 3.115546 -67.197635 2.781853 0.000000 0.000000 0.000000 3.334888 -2.216022 0.240868 -0.399762 12.679218 16.691406 1.839873 2.803424 -1.524270 -10.655705 -6.487274 62.355297 -0.626541 42.384039 1.704846 0.000000 0.000000 0.000000 
-0.675951 31.654964 -1.790375 0.000000 0.000000 0.000000 -23.489738 -11.699491 -1.974308 11.674351 22.207920 6.188427 45.081574 9.969598 -11.586394 -34.319737 24.004609 11.228046 -2.194198 -0.130069 -3.435403 0.000000 0.000000 0.000000 -21.549836 -10.663422 -1.879109 30.439035 -12.027599 1.482680 23.673682 -8.441042 -2.784545 -32.239371 -25.934602 0.461804 -8.461221 -0.882472 -0.025981 0.000000 0.000000 0.000000 -21.618138 -10.486465 -2.136737 9.911646 -4.256089 -1.360237 3.183706 -1.179006 0.037742 0.643143 1.053183 0.232462 0.000000 0.000000 0.000000 3.706137 -2.153962 0.125813 2.084802 2.100246 -4.354874 -4.768138 -1.675147 4.262275 0.000000 0.000000 0.000000 4.016280 -2.536051 0.308358 0.943546 -15.486033 -11.521299 0.599188 -1.058339 -0.311684 -21.069940 0.093040 -38.768608 3.192121 -67.184801 2.899423 0.000000 0.000000 0.000000 3.280897 -2.277533 0.220354 -0.406200 12.609660 16.630121 1.888718 2.500702 -1.389252 -10.900412 -6.638403 62.292766 -0.622492 42.495528 1.722517 0.000000 0.000000 0.000000 
-0.788093 31.654503 -1.749926 0.000000 0.000000 0.000000 -23.558193 -12.897842 -3.044939 7.626483 20.870927 9.768151 48.805622 8.397333 -11.296844 -32.018117 21.432046 9.540831 -2.406959 0.014132 -4.037281 0.000000 0.000000 0.000000 -21.915389 -11.432227 -2.847852 30.956200 -12.671562 2.243610 22.363566 -8.333356 -2.342271 -32.983127 -25.402752 -0.054501 -7.230547 -0.685006 -0.233472 0.000000 0.000000 0.000000 -21.809076 -12.179576 -3.286264 10.014187 -4.373024 -1.162021 3.162757 -1.215980 0.042539 0.817510 1.002407 0.375629 0.000000 0.000000 0.000000 3.795918 -2.155710 0.098451 1.927563 1.922373 -4.013576 -5.069857 -2.056827 4.696115 0.000000 0.000000 0.000000 4.025859 -2.532836 0.302042 0.931600 -15.355780 -11.404270 0.420690 -1.156148 -0.382233 -21.554055 0.206585 -38.884680 3.184089 -67.015603 2.952122 0.000000 0.000000 0.000000 3.239730 -2.337141 0.185414 -0.418938 12.586101 16.546231 1.868977 2.469852 -1.338007 -11.084057 -6.783996 62.194842 -0.597015 42.527261 1.742845 0.000000 0.000000 0.000000 
-0.842060 31.691910 -1.614027 0.000000 0.000000 0.000000 -23.746474 -14.255529 -4.247030 3.481304 18.906167 12.847488 51.887345 6.732109 -10.622691 -30.098666 18.009797 7.446902 -3.210483 0.045789 -3.935151 0.000000 0.000000 0.000000 -22.426880 -12.802041 -4.019597 31.360141 -13.253563 2.570972 21.375294 -7.621194 -1.710529 -32.903798 -24.843584 0.164002 -6.504768 -0.525663 -0.393539 0.000000 0.000000 0.000000 -22.047236 -14.377451 -4.533423 10.112437 -4.426344 -0.922638 3.180135 -1.215296 0.038197 0.972365 1.029321 0.357628 0.000000 0.000000 0.000000 3.823112 -2.156536 0.071787 1.794544 1.808000 -3.740818 -5.372736 -2.354537 5.053148 0.000000 0.000000 0.000000 4.033699 -2.526862 0.287474 0.927310 -15.217101 -11.233768 0.232177 -1.199228 -0.549926 -21.945495 0.414268 -38.895953 3.063553 -66.805438 2.891941 0.000000 0.000000 0.000000 3.215660 -2.377614 0.149901 -0.414633 12.598580 16.450791 1.777627 2.567578 -1.379572 -11.139249 -6.887531 62.056927 -0.548246 42.453119 1.750230 0.000000 0.000000 0.000000 
-0.808561 31.735838 -1.372932 0.000000 0.000000 0.000000 -23.998107 -15.822992 -5.370876 -0.170544 16.516039 14.626109 53.859525 5.206697 -9.613828 -28.606345 14.335990 4.718257 -3.787318 -0.041692 -3.313246 0.000000 0.000000 0.000000 -22.960415 -14.706873 -5.147859 31.423679 -13.635388 2.235317 20.941073 -6.250766 -1.035415 -31.947493 -24.285376 1.154959 -6.442872 -0.408664 -0.484537 0.000000 0.000000 0.000000 -22.461678 -16.918826 -5.697490 10.232521 -4.432125 -0.722577 3.226073 -1.190039 0.032331 0.909261 1.189030 0.273514 0.000000 0.000000 0.000000 3.788880 -2.164430 0.056341 1.748187 1.805765 -3.620860 -5.584685 -2.407379 5.209148 0.000000 0.000000 0.000000 4.038868 -2.524911 0.267161 0.930834 -15.124528 -11.039396 0.111753 -1.200992 -0.689839 -22.084840 0.643926 -38.829834 2.852445 -66.659443 2.719477 0.000000 0.000000 0.000000 3.204878 -2.393320 0.134136 -0.379248 12.641429 16.367835 1.609763 2.694257 -1.446400 -11.028636 -6.958278 61.899498 -0.477927 42.355840 1.732283 0.000000 0.000000 0.000000 
-0.709932 31.769413 -1.043316 0.000000 0.000000 0.000000 -24.333281 -17.850592 -6.383357 -2.984511 13.947874 14.932049 54.511043 3.976266 -8.242832 -27.063002 10.974703 1.303390 -3.993378 -0.180586 -2.251191 0.000000 0.000000 0.000000 -23.521066 -17.161612 -6.145927 30.964704 -13.744005 1.266942 20.961613 -4.442647 -0.438156 -30.691858 -23.631235 2.321239 -6.302175 -0.342158 -0.425014 0.000000 0.000000 0.000000 -23.122535 -19.592410 -6.704049 10.397543 -4.445684 -0.622017 3.279722 -1.175045 0.027703 0.806762 1.278723 0.101429 0.000000 0.000000 0.000000 3.726304 -2.178387 0.056081 1.852384 1.900376 -3.667948 -5.653999 -2.211505 5.133049 0.000000 0.000000 0.000000 4.025527 -2.534325 0.258429 0.942149 -15.085207 -10.844623 0.004708 -1.195671 -0.758886 -21.959929 0.813649 -38.758260 2.576267 -66.617417 2.459796 0.000000 0.000000 0.000000 3.199976 -2.394191 0.152160 -0.304309 12.658421 16.300607 1.427586 2.828679 -1.492044 -10.761061 -7.021208 61.742554 -0.395990 42.298146 1.681884 0.000000 0.000000 0.000000 
-0.567559 31.798622 -0.680321 0.000000 0.000000 0.000000 -24.795777 -20.634036 -7.403518 -4.673394 11.365606 13.748415 53.774090 3.361587 -6.563969 -25.408176 8.422214 -2.260037 -3.860135 -0.297096 -0.967131 0.000000 0.000000 0.000000 -24.055283 -19.953802 -7.062634 30.057060 -13.651386 -0.109811 21.249265 -2.548468 0.022540 -29.825790 -22.839106 3.007702 -5.513356 -0.287467 -0.175257 0.000000 0.000000 0.000000 -23.971623 -22.195844 -7.673611 10.600939 -4.478943 -0.627174 3.306424 -1.185200 0.032988 0.717243 1.240081 -0.076484 0.000000 0.000000 0.000000 3.673298 -2.192037 0.079410 2.087834 2.045890 -3.823822 -5.563676 -1.887485 4.882952 0.000000 0.000000 0.000000 3.990016 -2.553810 0.262700 0.960320 -15.091083 -10.688229 0.014346 -1.179573 -0.707679 -21.669364 0.840076 -38.752345 2.301389 -66.655686 2.173234 0.000000 0.000000 0.000000 3.193555 -2.393898 0.196712 -0.196075 12.623241 16.244432 1.222733 2.942218 -1.526578 -10.360671 -7.055720 61.620847 -0.320552 42.279909 1.607404 0.000000 0.000000 0.000000 
-0.409630 31.836746 -0.329489 0.000000 0.000000 0.000000 -25.344889 -24.037007 -8.514612 -5.420864 9.039815 11.556374 51.984344 3.417227 -4.701045 -23.934634 6.777995 -5.065506 -3.627482 -0.337276 0.103444 0.000000 0.000000 0.000000 -24.524349 -22.725592 -7.970108 28.949299 -13.342403 -1.536277 21.461255 -0.814515 0.273559 -29.500608 -21.956049 3.011166 -4.542865 -0.191028 0.192309 0.000000 0.000000 0.000000 -24.961046 -24.618607 -8.771314 10.802213 -4.508645 -0.664652 3.292849 -1.209596 0.045614 0.637819 1.150965 -0.073607 0.000000 0.000000 0.000000 3.653065 -2.200195 0.113160 2.366331 2.179722 -3.998451 -5.376263 -1.598833 4.590961 0.000000 0.000000 0.000000 3.935045 -2.574685 0.267176 0.979822 -15.102356 -10.590464 0.147566 -1.196814 -0.565399 -21.333824 0.730450 -38.844379 2.091066 -66.695978 1.929003 0.000000 0.000000 0.000000 3.176973 -2.399663 0.251870 -0.077592 12.530693 16.198267 0.999373 3.047506 -1.559695 -9.895240 -7.063671 61.563316 -0.259946 42.314668 1.518261 0.000000 0.000000 0.000000 
-0.258655 31.888371 -0.042721 0.000000 0.000000 0.000000 -26.055360 -27.658822 -9.841134 -5.598587 7.189562 9.009399 49.731823 3.817005 -2.758231 -22.911057 5.769309 -6.804987 -3.561850 -0.259214 0.668156 0.000000 0.000000 0.000000 -24.949966 -25.363312 -8.963925 27.858965 -12.815549 -2.752639 21.369355 0.768719 0.287743 -29.378993 -21.041195 2.667917 -4.023352 -0.049808 0.586263 0.000000 0.000000 0.000000 -25.943507 -26.839435 -10.039904 10.937396 -4.509968 -0.662243 3.263693 -1.235042 0.059651 0.604203 1.079534 0.053357 0.000000 0.000000 0.000000 3.656883 -2.200701 0.143745 2.589123 2.250250 -4.118925 -5.217581 -1.422334 4.367265 0.000000 0.000000 0.000000 3.874803 -2.588809 0.268860 1.001224 -15.075614 -10.523435 0.288395 -1.298797 -0.445638 -21.040311 0.523800 -39.008112 1.973748 -66.700936 1.778362 0.000000 0.000000 0.000000 3.138724 -2.410580 0.297696 0.022779 12.378055 16.149989 0.881511 3.162866 -1.613943 -9.479200 -7.036484 61.543638 -0.220988 42.396569 1.423954 0.000000 0.000000 0.000000 
